<svg width="18" height="28" viewBox="0 0 18 28" fill="none" xmlns="http://www.w3.org/2000/svg">
<path d="M17.0253 23.4238L13.0829 27.3637H2.66652C1.9849 27.3637 1.3312 27.093 0.849229 26.611C0.367253 26.129 0.0964813 25.4753 0.0964813 24.7937V19.8541L6.77859 13.172C7.0259 12.9258 7.36064 12.7876 7.70958 12.7876C8.05853 12.7876 8.39327 12.9258 8.64058 13.172L17.0292 21.5593C17.2756 21.8072 17.4136 22.1428 17.4129 22.4924C17.4122 22.8419 17.2728 23.1769 17.0253 23.4238Z" fill="#33D67B"/>
<path d="M5.63633 12.036L0.0966034 17.5758V4.07019L3.1511 1.02083C3.39841 0.774671 3.73315 0.636475 4.08209 0.636475C4.43104 0.636475 4.76578 0.774671 5.01309 1.02083L13.4017 9.40945C13.6476 9.65693 13.7855 9.9916 13.7855 10.3404C13.7855 10.6893 13.6476 11.024 13.4017 11.2714L11.203 13.4688L9.82164 12.0887C9.30824 11.5624 8.61976 11.2423 7.8864 11.1892C7.47269 11.1622 7.05799 11.2238 6.66998 11.3698C6.28196 11.5158 5.92957 11.743 5.63633 12.036Z" fill="#4385F5"/>
</svg>
