<svg width="15" height="17" viewBox="0 0 15 17" fill="none" xmlns="http://www.w3.org/2000/svg">
<path d="M3.49956 3.5479V1.1479C3.49956 0.935727 3.58384 0.732244 3.73387 0.582215C3.8839 0.432186 4.08738 0.3479 4.29956 0.3479H13.8995C14.1117 0.3479 14.3152 0.432186 14.4652 0.582215C14.6153 0.732244 14.6995 0.935727 14.6995 1.1479V12.3479C14.6995 12.5601 14.6153 12.7635 14.4652 12.9136C14.3152 13.0636 14.1117 13.1479 13.8995 13.1479H11.4996V15.5479C11.4996 15.9895 11.1396 16.3479 10.694 16.3479H1.10516C0.999661 16.3485 0.895078 16.3283 0.797418 16.2884C0.699758 16.2485 0.610947 16.1897 0.536087 16.1153C0.461228 16.041 0.401795 15.9526 0.361204 15.8552C0.320613 15.7578 0.299664 15.6534 0.299561 15.5479L0.301961 4.3479C0.301961 3.9063 0.66196 3.5479 1.10756 3.5479H3.49956ZM1.90196 5.1479L1.89956 14.7479H9.89955V5.1479H1.90196ZM5.09956 3.5479H11.4996V11.5479H13.0995V1.9479H5.09956V3.5479Z" fill="#546076"/>
</svg>
