<svg width="246" height="288" viewBox="0 0 246 288" fill="none" xmlns="http://www.w3.org/2000/svg">
<path d="M56.8629 228.156L50.2629 218.656H48.4629V232.656H50.7629V223.156L57.3629 232.656H59.1629V218.656H56.8629V228.156ZM67.939 232.916C69.419 232.916 70.659 232.416 71.679 231.396C72.699 230.376 73.219 229.136 73.219 227.656C73.219 226.176 72.699 224.936 71.679 223.916C70.659 222.896 69.419 222.396 67.939 222.396C66.479 222.396 65.219 222.896 64.199 223.916C63.179 224.936 62.659 226.176 62.659 227.656C62.659 229.136 63.179 230.376 64.199 231.396C65.219 232.416 66.479 232.916 67.939 232.916ZM65.719 229.916C65.119 229.316 64.819 228.556 64.819 227.656C64.819 226.756 65.119 225.996 65.719 225.396C66.319 224.796 67.059 224.496 67.939 224.496C68.819 224.496 69.559 224.796 70.159 225.396C70.759 225.996 71.059 226.756 71.059 227.656C71.059 228.556 70.759 229.316 70.159 229.916C69.559 230.516 68.819 230.816 67.939 230.816C67.059 230.816 66.319 230.516 65.719 229.916ZM81.9568 222.656H79.4768V219.856L77.3168 220.496V222.656H75.4768V224.736H77.3168V229.536C77.3168 232.156 78.6568 233.056 81.9568 232.656V230.716C80.3168 230.796 79.4768 230.816 79.4768 229.536V224.736H81.9568V222.656ZM90.5759 222.396C89.1559 222.396 88.1359 222.916 87.4759 223.936V218.656H85.3159V232.656H87.4759V227.296C87.4759 225.356 88.4959 224.416 90.0159 224.416C91.3959 224.416 92.2559 225.236 92.2559 226.736V232.656H94.4159V226.516C94.4159 223.956 92.8759 222.396 90.5759 222.396ZM100.182 220.756C100.742 220.196 100.742 219.356 100.202 218.816C99.6616 218.256 98.7816 218.256 98.2416 218.816C97.7016 219.356 97.7016 220.196 98.2416 220.756C98.8016 221.296 99.6416 221.296 100.182 220.756ZM100.302 232.656V222.656H98.1416V232.656H100.302ZM109.47 222.396C108.05 222.396 107.03 222.916 106.37 223.936V222.656H104.21V232.656H106.37V227.296C106.37 225.356 107.39 224.416 108.91 224.416C110.29 224.416 111.15 225.236 111.15 226.736V232.656H113.31V226.516C113.31 223.956 111.77 222.396 109.47 222.396ZM124.995 224.136C124.175 222.976 123.015 222.396 121.515 222.396C120.095 222.396 118.915 222.896 117.935 223.916C116.955 224.916 116.475 226.136 116.475 227.556C116.475 228.976 116.955 230.196 117.935 231.216C118.915 232.216 120.095 232.716 121.515 232.716C123.015 232.716 124.175 232.136 124.995 230.976V232.196C124.995 233.936 123.875 234.956 122.015 234.956C120.595 234.956 119.615 234.436 119.095 233.416L117.235 234.496C118.095 236.116 119.675 236.916 121.975 236.916C123.395 236.916 124.615 236.516 125.615 235.696C126.615 234.876 127.115 233.716 127.115 232.196V222.656H124.995V224.136ZM119.535 229.796C118.935 229.196 118.635 228.456 118.635 227.556C118.635 226.656 118.935 225.916 119.535 225.316C120.155 224.716 120.915 224.416 121.815 224.416C122.715 224.416 123.475 224.716 124.075 225.316C124.695 225.916 124.995 226.656 124.995 227.556C124.995 228.456 124.695 229.196 124.075 229.796C123.475 230.396 122.715 230.696 121.815 230.696C120.915 230.696 120.155 230.396 119.535 229.796ZM145.773 218.656H137.573V232.656H139.873V226.976H145.573V224.776H139.873V220.856H145.773V218.656ZM153.905 232.916C155.385 232.916 156.625 232.416 157.645 231.396C158.665 230.376 159.185 229.136 159.185 227.656C159.185 226.176 158.665 224.936 157.645 223.916C156.625 222.896 155.385 222.396 153.905 222.396C152.445 222.396 151.185 222.896 150.165 223.916C149.145 224.936 148.625 226.176 148.625 227.656C148.625 229.136 149.145 230.376 150.165 231.396C151.185 232.416 152.445 232.916 153.905 232.916ZM151.685 229.916C151.085 229.316 150.785 228.556 150.785 227.656C150.785 226.756 151.085 225.996 151.685 225.396C152.285 224.796 153.025 224.496 153.905 224.496C154.785 224.496 155.525 224.796 156.125 225.396C156.725 225.996 157.025 226.756 157.025 227.656C157.025 228.556 156.725 229.316 156.125 229.916C155.525 230.516 154.785 230.816 153.905 230.816C153.025 230.816 152.285 230.516 151.685 229.916ZM169.278 228.016C169.278 229.956 168.258 230.896 166.738 230.896C165.358 230.896 164.498 230.076 164.498 228.576V222.656H162.338V228.796C162.338 231.356 163.878 232.916 166.178 232.916C167.598 232.916 168.618 232.396 169.278 231.376V232.656H171.438V222.656H169.278V228.016ZM180.624 222.396C179.204 222.396 178.184 222.916 177.524 223.936V222.656H175.364V232.656H177.524V227.296C177.524 225.356 178.544 224.416 180.064 224.416C181.444 224.416 182.304 225.236 182.304 226.736V232.656H184.464V226.516C184.464 223.956 182.924 222.396 180.624 222.396ZM196.109 224.076C195.289 222.956 194.129 222.396 192.609 222.396C191.229 222.396 190.069 222.896 189.089 223.916C188.109 224.936 187.629 226.176 187.629 227.656C187.629 229.116 188.109 230.376 189.089 231.396C190.069 232.416 191.229 232.916 192.609 232.916C194.129 232.916 195.289 232.356 196.109 231.216V232.656H198.269V218.656H196.109V224.076ZM190.689 229.956C190.089 229.336 189.789 228.576 189.789 227.656C189.789 226.736 190.089 225.976 190.689 225.376C191.289 224.756 192.049 224.456 192.949 224.456C193.849 224.456 194.609 224.756 195.209 225.376C195.809 225.976 196.109 226.736 196.109 227.656C196.109 228.576 195.809 229.336 195.209 229.956C194.609 230.556 193.849 230.856 192.949 230.856C192.049 230.856 191.289 230.556 190.689 229.956Z" fill="#546076"/>
<path d="M11.291 251.856V253.264H14.587V263.056H16.059V253.264H19.371V251.856H11.291ZM22.1178 255.056H20.7258V263.056H22.1178V258.816C22.1178 257.936 22.3578 257.312 22.8538 256.912C23.3498 256.512 23.9258 256.336 24.6138 256.368V254.912C23.4138 254.912 22.5818 255.408 22.1178 256.4V255.056ZM30.5477 261.328L27.8277 255.056H26.3397L29.8277 263.024L29.6837 263.328C29.2197 264.496 28.4997 265.04 27.5237 264.96V266.256C29.1237 266.368 30.3877 265.36 31.0757 263.552L34.3397 255.056H32.8517L30.5477 261.328ZM46.0941 255.056H43.9661V252.816L42.5741 253.232V255.056H40.9901V256.4H42.5741V260.736C42.5741 262.72 43.6621 263.376 46.0941 263.056V261.808C44.6701 261.872 43.9661 261.968 43.9661 260.736V256.4H46.0941V255.056ZM55.2078 262.048C56.0238 261.232 56.4398 260.24 56.4398 259.056C56.4398 257.872 56.0238 256.88 55.2078 256.064C54.3918 255.248 53.3838 254.848 52.2158 254.848C51.0478 254.848 50.0398 255.248 49.2238 256.064C48.4078 256.88 48.0078 257.872 48.0078 259.056C48.0078 260.24 48.4078 261.232 49.2238 262.048C50.0398 262.864 51.0478 263.264 52.2158 263.264C53.3838 263.264 54.3918 262.864 55.2078 262.048ZM52.2158 261.904C51.4318 261.904 50.7598 261.632 50.2158 261.088C49.6718 260.544 49.3998 259.872 49.3998 259.056C49.3998 258.24 49.6718 257.568 50.2158 257.024C50.7598 256.48 51.4318 256.208 52.2158 256.208C53.0158 256.208 53.6878 256.48 54.2318 257.024C54.7758 257.568 55.0478 258.24 55.0478 259.056C55.0478 259.872 54.7758 260.544 54.2318 261.088C53.6878 261.632 53.0158 261.904 52.2158 261.904ZM68.0809 263.264C69.2329 263.264 70.1609 262.976 70.8809 262.4C71.6009 261.808 71.9529 261.024 71.9529 260.048C71.9529 259.344 71.7929 258.768 71.3929 258.368C71.1209 258.048 70.9769 257.872 70.5289 257.632C70.0969 257.392 69.9689 257.312 69.4089 257.104C69.1369 256.992 68.9449 256.928 68.8169 256.88L68.1609 256.672C67.2969 256.4 66.6889 256.128 66.3369 255.872C65.9849 255.616 65.8089 255.248 65.8089 254.752C65.8089 253.728 66.6249 253.088 67.8409 253.088C69.0569 253.088 69.9049 253.664 70.3849 254.816L71.6329 254.096C70.9769 252.624 69.6169 251.648 67.8409 251.648C66.8649 251.648 66.0329 251.936 65.3449 252.512C64.6569 253.072 64.3209 253.84 64.3209 254.816C64.3209 255.632 64.6569 256.288 65.0249 256.688C65.2009 256.88 65.4729 257.072 65.8409 257.264C66.2089 257.44 66.5289 257.584 66.7689 257.68L67.8409 258.032C68.7849 258.336 69.4729 258.608 69.8729 258.88C70.2729 259.152 70.4809 259.552 70.4809 260.08C70.4809 261.12 69.6489 261.808 68.1129 261.808C66.5609 261.808 65.5529 261.136 65.1209 259.776L63.8409 260.512C64.4329 262.224 65.9849 263.264 68.0809 263.264ZM82.5583 259.696C82.5904 259.488 82.6063 259.28 82.6063 259.072C82.6063 257.904 82.2383 256.912 81.4864 256.096C80.7503 255.264 79.7903 254.848 78.6223 254.848C77.3903 254.848 76.3823 255.248 75.5983 256.048C74.8143 256.848 74.4303 257.856 74.4303 259.056C74.4303 260.272 74.8303 261.28 75.6143 262.08C76.4143 262.864 77.4543 263.264 78.7183 263.264C80.2863 263.264 81.4543 262.656 82.2383 261.456L81.0543 260.784C80.5743 261.568 79.8063 261.952 78.7503 261.952C77.2303 261.952 76.1263 261.12 75.8543 259.696H82.5583ZM78.6223 256.16C79.9023 256.16 80.9583 256.96 81.1983 258.48H75.8543C76.0943 257.072 77.1343 256.16 78.6223 256.16ZM91.9349 256.432C91.2469 255.376 90.2389 254.848 88.9109 254.848C87.7909 254.848 86.8309 255.264 86.0469 256.08C85.2629 256.896 84.8629 257.888 84.8629 259.056C84.8629 260.224 85.2629 261.232 86.0469 262.048C86.8309 262.864 87.7909 263.264 88.9109 263.264C90.2389 263.264 91.2469 262.736 91.9349 261.68V263.056H93.3269V255.056H91.9349V256.432ZM89.0869 261.92C88.2869 261.92 87.6149 261.648 87.0709 261.104C86.5269 260.544 86.2549 259.872 86.2549 259.056C86.2549 258.24 86.5269 257.568 87.0709 257.024C87.6149 256.464 88.2869 256.192 89.0869 256.192C89.9029 256.192 90.5749 256.464 91.1189 257.024C91.6629 257.568 91.9349 258.24 91.9349 259.056C91.9349 259.872 91.6629 260.544 91.1189 261.104C90.5749 261.648 89.9029 261.92 89.0869 261.92ZM97.9478 255.056H96.5558V263.056H97.9478V258.816C97.9478 257.936 98.1878 257.312 98.6838 256.912C99.1798 256.512 99.7558 256.336 100.444 256.368V254.912C99.2438 254.912 98.4118 255.408 97.9478 256.4V255.056ZM106.248 263.264C107.8 263.264 109.16 262.448 109.848 261.184L108.664 260.496C108.216 261.344 107.32 261.888 106.248 261.888C105.448 261.888 104.776 261.616 104.232 261.072C103.704 260.528 103.432 259.856 103.432 259.056C103.432 258.24 103.704 257.568 104.232 257.024C104.776 256.48 105.448 256.208 106.248 256.208C107.32 256.208 108.216 256.768 108.616 257.616L109.784 256.944C109.16 255.664 107.832 254.848 106.248 254.848C105.048 254.848 104.04 255.248 103.24 256.064C102.44 256.864 102.04 257.856 102.04 259.056C102.04 260.256 102.44 261.248 103.24 262.064C104.04 262.864 105.048 263.264 106.248 263.264ZM116.327 254.848C115.159 254.848 114.295 255.296 113.735 256.208V251.856H112.343V263.056H113.735V258.816C113.735 257.024 114.663 256.176 116.055 256.176C117.287 256.176 118.039 256.928 118.039 258.224V263.056H119.431V258.144C119.431 256.112 118.199 254.848 116.327 254.848ZM135.278 261.152L133.39 255.056H132.046L130.158 261.136L128.398 255.056H126.942L129.422 263.056H130.846L132.718 257.136L134.59 263.056H136.014L138.494 255.056H137.038L135.278 261.152ZM141.75 253.6C142.262 253.6 142.678 253.184 142.678 252.672C142.678 252.16 142.262 251.728 141.75 251.728C141.222 251.728 140.806 252.16 140.806 252.672C140.806 253.184 141.222 253.6 141.75 253.6ZM142.438 263.056V255.056H141.046V263.056H142.438ZM150.034 255.056H147.906V252.816L146.514 253.232V255.056H144.93V256.4H146.514V260.736C146.514 262.72 147.602 263.376 150.034 263.056V261.808C148.61 261.872 147.906 261.968 147.906 260.736V256.4H150.034V255.056ZM156.786 254.848C155.618 254.848 154.754 255.296 154.194 256.208V251.856H152.802V263.056H154.194V258.816C154.194 257.024 155.122 256.176 156.514 256.176C157.746 256.176 158.498 256.928 158.498 258.224V263.056H159.89V258.144C159.89 256.112 158.658 254.848 156.786 254.848ZM176.713 254.848C175.593 254.848 174.761 255.296 174.201 256.208C173.705 255.296 172.921 254.848 171.849 254.848C170.809 254.848 170.009 255.28 169.465 256.128V255.056H168.073V263.056H169.465V258.608C169.465 256.992 170.345 256.176 171.513 256.176C172.553 256.176 173.209 256.896 173.209 258.128V263.056H174.601V258.608C174.601 256.96 175.369 256.176 176.569 256.176C177.641 256.176 178.329 256.896 178.329 258.128V263.056H179.721V258.08C179.721 256.096 178.505 254.848 176.713 254.848ZM188.291 259.296C188.291 261.088 187.363 261.936 185.971 261.936C184.739 261.936 183.987 261.184 183.987 259.888V255.056H182.595V259.968C182.595 262 183.827 263.264 185.699 263.264C186.867 263.264 187.731 262.816 188.291 261.904V263.056H189.683V255.056H188.291V259.296ZM194.315 263.056V251.376H192.923V263.056H194.315ZM201.91 255.056H199.782V252.816L198.39 253.232V255.056H196.806V256.4H198.39V260.736C198.39 262.72 199.478 263.376 201.91 263.056V261.808C200.486 261.872 199.782 261.968 199.782 260.736V256.4H201.91V255.056ZM205.382 253.6C205.894 253.6 206.31 253.184 206.31 252.672C206.31 252.16 205.894 251.728 205.382 251.728C204.854 251.728 204.438 252.16 204.438 252.672C204.438 253.184 204.854 253.6 205.382 253.6ZM206.07 263.056V255.056H204.678V263.056H206.07ZM213.73 254.848C212.402 254.848 211.394 255.376 210.706 256.432V255.056H209.314V266.256H210.706V261.68C211.394 262.736 212.402 263.264 213.73 263.264C214.85 263.264 215.81 262.864 216.594 262.048C217.378 261.232 217.778 260.224 217.778 259.056C217.778 257.888 217.378 256.896 216.594 256.08C215.81 255.264 214.85 254.848 213.73 254.848ZM213.554 261.92C212.738 261.92 212.066 261.648 211.522 261.104C210.978 260.544 210.706 259.872 210.706 259.056C210.706 258.24 210.978 257.568 211.522 257.024C212.066 256.464 212.738 256.192 213.554 256.192C214.354 256.192 215.026 256.464 215.57 257.024C216.114 257.568 216.386 258.24 216.386 259.056C216.386 259.872 216.114 260.544 215.57 261.104C215.026 261.648 214.354 261.92 213.554 261.92ZM221.951 263.056V251.376H220.559V263.056H221.951ZM232.875 259.696C232.907 259.488 232.923 259.28 232.923 259.072C232.923 257.904 232.555 256.912 231.803 256.096C231.067 255.264 230.107 254.848 228.939 254.848C227.707 254.848 226.699 255.248 225.915 256.048C225.131 256.848 224.747 257.856 224.747 259.056C224.747 260.272 225.147 261.28 225.931 262.08C226.731 262.864 227.771 263.264 229.035 263.264C230.603 263.264 231.771 262.656 232.555 261.456L231.371 260.784C230.891 261.568 230.123 261.952 229.067 261.952C227.547 261.952 226.443 261.12 226.171 259.696H232.875ZM228.939 256.16C230.219 256.16 231.275 256.96 231.515 258.48H226.171C226.411 257.072 227.451 256.16 228.939 256.16ZM62.3884 276.056V275.816C62.3884 274.472 63.0444 273.992 64.5004 273.992C64.9484 273.992 65.4924 274.04 66.1484 274.12V272.856C65.4924 272.712 64.9324 272.648 64.5004 272.648C62.1644 272.648 60.9964 273.704 60.9964 275.816V276.056H59.7164V277.4H60.9964V284.056H62.3884V277.4H65.3484V284.056H66.7404V276.056H62.3884ZM71.3847 284.056V272.376H69.9927V284.056H71.3847ZM78.9804 276.056H76.8523V273.816L75.4603 274.232V276.056H73.8763V277.4H75.4603V281.736C75.4603 283.72 76.5483 284.376 78.9804 284.056V282.808C77.5563 282.872 76.8523 282.968 76.8523 281.736V277.4H78.9804V276.056ZM89.0221 280.696C89.0541 280.488 89.0701 280.28 89.0701 280.072C89.0701 278.904 88.7021 277.912 87.9501 277.096C87.2141 276.264 86.2541 275.848 85.0861 275.848C83.8541 275.848 82.8461 276.248 82.0621 277.048C81.2781 277.848 80.8941 278.856 80.8941 280.056C80.8941 281.272 81.2941 282.28 82.0781 283.08C82.8781 283.864 83.9181 284.264 85.1821 284.264C86.7501 284.264 87.9181 283.656 88.7021 282.456L87.5181 281.784C87.0381 282.568 86.2701 282.952 85.2141 282.952C83.6941 282.952 82.5901 282.12 82.3181 280.696H89.0221ZM85.0861 277.16C86.3661 277.16 87.4221 277.96 87.6621 279.48H82.3181C82.5581 278.072 83.5981 277.16 85.0861 277.16ZM93.1822 276.056H91.7902V284.056H93.1822V279.816C93.1822 278.936 93.4222 278.312 93.9182 277.912C94.4142 277.512 94.9902 277.336 95.6782 277.368V275.912C94.4782 275.912 93.6462 276.408 93.1822 277.4V276.056ZM99.0634 278.216C99.0634 277.528 99.7034 277.144 100.487 277.144C101.335 277.144 101.911 277.48 102.199 278.168L103.367 277.512C102.855 276.472 101.783 275.848 100.487 275.848C99.6714 275.848 98.9994 276.072 98.4554 276.52C97.9274 276.968 97.6554 277.544 97.6554 278.232C97.6554 279.928 99.2874 280.344 100.551 280.68C101.431 280.888 102.135 281.24 102.135 281.864C102.135 282.616 101.463 282.952 100.551 282.952C99.5754 282.952 98.8234 282.472 98.5674 281.704L97.3674 282.392C97.8314 283.528 98.9994 284.264 100.551 284.264C101.431 284.264 102.135 284.04 102.695 283.608C103.255 283.176 103.543 282.584 103.543 281.864C103.559 280.152 101.895 279.688 100.647 279.416C99.7674 279.176 99.0634 278.84 99.0634 278.216ZM112.631 278.216C112.631 277.528 113.271 277.144 114.055 277.144C114.903 277.144 115.479 277.48 115.767 278.168L116.935 277.512C116.423 276.472 115.351 275.848 114.055 275.848C113.239 275.848 112.567 276.072 112.023 276.52C111.495 276.968 111.223 277.544 111.223 278.232C111.223 279.928 112.855 280.344 114.119 280.68C114.999 280.888 115.703 281.24 115.703 281.864C115.703 282.616 115.031 282.952 114.119 282.952C113.143 282.952 112.391 282.472 112.135 281.704L110.935 282.392C111.399 283.528 112.567 284.264 114.119 284.264C114.999 284.264 115.703 284.04 116.263 283.608C116.823 283.176 117.111 282.584 117.111 281.864C117.127 280.152 115.463 279.688 114.215 279.416C113.335 279.176 112.631 278.84 112.631 278.216ZM127.341 280.696C127.373 280.488 127.389 280.28 127.389 280.072C127.389 278.904 127.021 277.912 126.269 277.096C125.533 276.264 124.573 275.848 123.405 275.848C122.173 275.848 121.165 276.248 120.381 277.048C119.597 277.848 119.213 278.856 119.213 280.056C119.213 281.272 119.613 282.28 120.397 283.08C121.197 283.864 122.237 284.264 123.501 284.264C125.069 284.264 126.237 283.656 127.021 282.456L125.837 281.784C125.357 282.568 124.589 282.952 123.533 282.952C122.013 282.952 120.909 282.12 120.637 280.696H127.341ZM123.405 277.16C124.685 277.16 125.741 277.96 125.981 279.48H120.637C120.877 278.072 121.917 277.16 123.405 277.16ZM131.501 284.056V272.376H130.109V284.056H131.501ZM142.425 280.696C142.457 280.488 142.473 280.28 142.473 280.072C142.473 278.904 142.105 277.912 141.353 277.096C140.617 276.264 139.657 275.848 138.489 275.848C137.257 275.848 136.249 276.248 135.465 277.048C134.681 277.848 134.297 278.856 134.297 280.056C134.297 281.272 134.697 282.28 135.481 283.08C136.281 283.864 137.321 284.264 138.585 284.264C140.153 284.264 141.321 283.656 142.105 282.456L140.921 281.784C140.441 282.568 139.673 282.952 138.617 282.952C137.097 282.952 135.993 282.12 135.721 280.696H142.425ZM138.489 277.16C139.769 277.16 140.825 277.96 141.065 279.48H135.721C135.961 278.072 137.001 277.16 138.489 277.16ZM148.937 284.264C150.489 284.264 151.849 283.448 152.537 282.184L151.353 281.496C150.905 282.344 150.009 282.888 148.937 282.888C148.137 282.888 147.465 282.616 146.921 282.072C146.393 281.528 146.121 280.856 146.121 280.056C146.121 279.24 146.393 278.568 146.921 278.024C147.465 277.48 148.137 277.208 148.937 277.208C150.009 277.208 150.905 277.768 151.305 278.616L152.473 277.944C151.849 276.664 150.521 275.848 148.937 275.848C147.737 275.848 146.729 276.248 145.929 277.064C145.129 277.864 144.729 278.856 144.729 280.056C144.729 281.256 145.129 282.248 145.929 283.064C146.729 283.864 147.737 284.264 148.937 284.264ZM159.383 276.056H157.255V273.816L155.863 274.232V276.056H154.279V277.4H155.863V281.736C155.863 283.72 156.951 284.376 159.383 284.056V282.808C157.959 282.872 157.255 282.968 157.255 281.736V277.4H159.383V276.056ZM169.425 280.696C169.457 280.488 169.473 280.28 169.473 280.072C169.473 278.904 169.105 277.912 168.353 277.096C167.617 276.264 166.657 275.848 165.489 275.848C164.257 275.848 163.249 276.248 162.465 277.048C161.681 277.848 161.297 278.856 161.297 280.056C161.297 281.272 161.697 282.28 162.481 283.08C163.281 283.864 164.321 284.264 165.585 284.264C167.153 284.264 168.321 283.656 169.105 282.456L167.921 281.784C167.441 282.568 166.673 282.952 165.617 282.952C164.097 282.952 162.993 282.12 162.721 280.696H169.425ZM165.489 277.16C166.769 277.16 167.825 277.96 168.065 279.48H162.721C162.961 278.072 164.001 277.16 165.489 277.16ZM178.802 277.432C178.114 276.376 177.106 275.848 175.778 275.848C174.658 275.848 173.698 276.264 172.914 277.08C172.13 277.896 171.73 278.888 171.73 280.056C171.73 281.224 172.13 282.232 172.914 283.048C173.698 283.864 174.658 284.264 175.778 284.264C177.106 284.264 178.114 283.736 178.802 282.68V284.056H180.194V272.856H178.802V277.432ZM175.954 282.92C175.154 282.92 174.482 282.648 173.938 282.104C173.394 281.544 173.122 280.872 173.122 280.056C173.122 279.24 173.394 278.568 173.938 278.024C174.482 277.464 175.154 277.192 175.954 277.192C176.77 277.192 177.442 277.464 177.986 278.024C178.53 278.568 178.802 279.24 178.802 280.056C178.802 280.872 178.53 281.544 177.986 282.104C177.442 282.648 176.77 282.92 175.954 282.92ZM184.303 284.232C184.895 284.232 185.343 283.768 185.343 283.192C185.343 282.616 184.895 282.152 184.303 282.152C183.727 282.152 183.263 282.616 183.263 283.192C183.263 283.768 183.727 284.232 184.303 284.232Z" fill="#546076"/>
<path d="M163.773 33.0169C165.763 33.0169 181.686 18.1492 195.37 44.6633" stroke="#4385F5" stroke-linecap="round"/>
<path d="M95.2268 70.2723C93.2365 70.2723 77.3135 55.4046 63.6295 81.9187" stroke="#4385F5" stroke-linecap="round"/>
<rect x="76.1134" y="34.4103" width="37.3537" height="52.1561" rx="3" fill="white" stroke="#4385F5"/>
<path d="M86.021 43.1382L103.241 60.289" stroke="#E5E8EF"/>
<path d="M86.021 60.2888L103.241 43.138" stroke="#E5E8EF"/>
<path d="M82.4547 69.0079H106.808" stroke="#E5E8EF"/>
<path d="M82.4547 78.6016H106.808" stroke="#E5E8EF"/>
<path d="M131.059 175.12C130.931 172.382 130.65 166.83 130.547 166.524H135.086L134.638 175.12H131.059Z" fill="white" stroke="#4385F5"/>
<path d="M116.97 175.12C117.098 172.382 117.379 166.83 117.481 166.524H112.943L113.39 175.12H116.97Z" fill="white" stroke="#4385F5"/>
<path d="M136.578 184.988H128.88C128.88 180.174 130.521 176.088 131.341 174.647H134.34C135.629 175.11 136.369 181.734 136.578 184.988Z" fill="white" stroke="#4385F5"/>
<path d="M111.45 184.988H119.148C119.148 180.174 117.507 176.088 116.687 174.647H113.688C112.399 175.11 111.659 181.734 111.45 184.988Z" fill="white" stroke="#4385F5"/>
<rect x="130" y="0.988281" width="37.3537" height="52.1561" rx="3" fill="white" stroke="#4385F5"/>
<path d="M139.907 9.71619L157.128 26.867" stroke="#E5E8EF"/>
<path d="M139.907 26.8668L157.128 9.71603" stroke="#E5E8EF"/>
<path d="M136.341 35.5859H160.694" stroke="#E5E8EF"/>
<path d="M136.341 45.1796H160.694" stroke="#E5E8EF"/>
<path d="M110.927 83.1893C97.7779 86.2254 99.4214 76.914 101.887 71.8788L113.467 70.7627L110.927 83.1893Z" fill="white" stroke="#4385F5"/>
<path d="M143.053 96.2855C144.622 85.1241 144.099 70.986 143.949 70.614H136.105L137.076 84.9751C137.425 96.6327 138.495 119.427 139.99 117.344C141.484 115.26 142.057 112.507 142.156 111.391C141.932 110.076 141.798 105.215 143.053 96.2855Z" fill="white" stroke="#4385F5"/>
<path d="M110.949 72.3473H101.62C104.299 66.3977 113.824 49.4655 128.393 51.5918C139.262 53.1782 144.363 65.9917 145.536 72.3473H137.812L138.879 87.9958H108.658L110.949 72.3473Z" fill="white" stroke="#4385F5"/>
<path d="M110.146 167.75C105.107 119.512 108.284 93.8377 113.097 88.6713H123.847H130L123.512 109.944C123.586 110.792 120.882 148.835 119.52 167.75H110.146Z" fill="white"/>
<path d="M137.529 167.75C142.568 119.512 139.391 93.8377 134.579 88.6713H123.828H117.676L124.163 109.944C124.089 110.792 126.794 148.835 128.155 167.75H137.529Z" fill="white"/>
<path d="M118.59 48.3867C116.636 47.9645 117.945 42.8404 118.844 40.3312L124.144 47.5145C123.107 47.9811 120.544 48.8089 118.59 48.3867Z" stroke="#4385F5"/>
<path fill-rule="evenodd" clip-rule="evenodd" d="M123.847 89.1713H113.321C112.264 90.4132 111.239 92.8257 110.384 96.5357C109.497 100.386 108.808 105.558 108.426 112.088C107.667 125.066 108.12 143.367 110.597 167.25H119.055C119.735 157.795 120.732 143.823 121.556 132.037C121.974 126.046 122.348 120.621 122.612 116.641C122.744 114.65 122.849 113.022 122.919 111.865C122.953 111.287 122.979 110.828 122.995 110.501L122.998 110.444H116.811V109.444H123.512H123.724H123.97H124.182H130.883V110.444H124.696L124.699 110.501C124.715 110.828 124.741 111.287 124.775 111.865C124.845 113.022 124.95 114.65 125.082 116.641C125.346 120.621 125.72 126.046 126.138 132.037C126.962 143.823 127.959 157.795 128.639 167.25H137.097C139.574 143.367 140.027 125.066 139.268 112.088C138.886 105.558 138.198 100.386 137.31 96.5357C136.455 92.8257 135.43 90.4132 134.373 89.1713H123.847ZM123.847 88.1713H134.597H134.815L134.963 88.3305C136.262 89.7253 137.386 92.4123 138.285 96.3111C139.189 100.235 139.882 105.466 140.266 112.029C141.034 125.159 140.567 143.665 138.045 167.802L137.998 168.25H137.548H128.174H127.709L127.675 167.786C126.995 158.328 125.978 144.088 125.141 132.107C124.722 126.116 124.349 120.689 124.084 116.707C123.99 115.298 123.91 114.069 123.847 113.059C123.784 114.069 123.704 115.298 123.61 116.707C123.346 120.689 122.972 126.116 122.553 132.107C121.716 144.088 120.7 158.328 120.019 167.786L119.985 168.25H119.52H110.146H109.696L109.649 167.802C107.128 143.665 106.66 125.159 107.428 112.029C107.812 105.466 108.505 100.235 109.41 96.3111C110.308 92.4123 111.432 89.7253 112.731 88.3305L112.879 88.1713H113.097H123.847Z" fill="#4385F5"/>
<path d="M125.08 34.5881C125.581 34.471 126.094 34.3783 126.599 34.4754C130.055 35.1408 135.628 41.0985 135.182 61.3232V75.761H118.198C117.912 74.508 117.958 71.6602 120.429 70.2933C120.972 69.9925 121.343 69.5978 121.582 69.1495C123.205 66.099 118.947 63.38 117.541 60.2236C117.075 59.1769 116.931 58.0509 117.436 56.9713C118.755 54.1514 120.667 51.684 121.458 50.8027C122.905 49.5477 124.691 46.3085 120.251 43.3925C117.77 41.7632 117.677 39.933 118.454 38.3882C119.645 36.0184 122.498 35.1923 125.08 34.5881Z" fill="white" stroke="#4385F5"/>
<ellipse cx="198.339" cy="53.1443" rx="3.66075" ry="3.646" fill="white" stroke="#4385F5"/>
<ellipse rx="3.66075" ry="3.64599" transform="matrix(-1 0 0 1 60.6608 90.3997)" fill="white" stroke="#4385F5"/>
<ellipse rx="3.66075" ry="3.646" transform="matrix(-1 0 0 1 78.794 158.659)" fill="white" stroke="#4385F5"/>
<ellipse rx="3.66074" ry="3.646" transform="matrix(-1 0 0 1 149.196 121.123)" fill="white" stroke="#4385F5"/>
</svg>
