<svg width="40" height="39" viewBox="0 0 40 39" fill="none" xmlns="http://www.w3.org/2000/svg">
<path d="M1.42555 19.4785C1.42555 9.2375 9.72751 0.935547 19.9685 0.935547C30.2095 0.935547 38.5114 9.2375 38.5114 19.4785C38.5114 29.7195 30.2095 38.0214 19.9685 38.0214C9.72751 38.0214 1.42555 29.7195 1.42555 19.4785Z" fill="#546076"/>
<path d="M1.92555 19.4785C1.92555 9.51365 10.0037 1.43555 19.9685 1.43555V0.435547C9.45137 0.435547 0.925552 8.96136 0.925552 19.4785H1.92555ZM19.9685 1.43555C29.9333 1.43555 38.0114 9.51365 38.0114 19.4785H39.0114C39.0114 8.96136 30.4856 0.435547 19.9685 0.435547V1.43555ZM38.0114 19.4785C38.0114 29.4433 29.9333 37.5214 19.9685 37.5214V38.5214C30.4856 38.5214 39.0114 29.9956 39.0114 19.4785H38.0114ZM19.9685 37.5214C10.0037 37.5214 1.92555 29.4433 1.92555 19.4785H0.925552C0.925552 29.9956 9.45137 38.5214 19.9685 38.5214V37.5214Z" fill="white"/>
<path d="M14.5298 16.2937H10.3276V28.9197H14.5298V16.2937Z" fill="white"/>
<path d="M14.8065 12.3879C14.7792 11.1499 13.8939 10.207 12.4564 10.207C11.0188 10.207 10.079 11.1499 10.079 12.3879C10.079 13.6002 10.991 14.5703 12.4018 14.5703H12.4287C13.8939 14.5703 14.8065 13.6002 14.8065 12.3879Z" fill="white"/>
<path d="M29.6845 21.6802C29.6845 17.802 27.6115 15.9971 24.8462 15.9971C22.6151 15.9971 21.6162 17.2226 21.0584 18.0823V16.2939H16.8557C16.9111 17.4786 16.8557 28.9199 16.8557 28.9199H21.0584V21.8685C21.0584 21.4911 21.0857 21.1147 21.1968 20.8445C21.5005 20.0907 22.192 19.3102 23.353 19.3102C24.8742 19.3102 25.4823 20.4679 25.4823 22.1646V28.9195H29.6844L29.6845 21.6802Z" fill="white"/>
</svg>
