<svg width="20" height="22" viewBox="0 0 20 22" fill="none" xmlns="http://www.w3.org/2000/svg">
<path d="M11.6195 16.023L7.42047 13.733C6.87227 14.3191 6.16046 14.7267 5.37755 14.9029C4.59463 15.0791 3.77682 15.0157 3.03039 14.721C2.28397 14.4263 1.64343 13.9139 1.19204 13.2504C0.740649 12.5869 0.499268 11.803 0.499268 11.0005C0.499268 10.198 0.740649 9.41405 1.19204 8.75055C1.64343 8.08704 2.28397 7.57464 3.03039 7.27995C3.77682 6.98526 4.59463 6.9219 5.37755 7.0981C6.16046 7.27431 6.87227 7.68193 7.42047 8.26799L11.6205 5.97799C11.382 5.03406 11.496 4.03558 11.9411 3.16969C12.3862 2.30381 13.1318 1.62997 14.0381 1.27449C14.9445 0.919012 15.9494 0.906295 16.8645 1.23872C17.7795 1.57115 18.5419 2.22591 19.0088 3.08025C19.4756 3.9346 19.6149 4.92988 19.4004 5.87954C19.1859 6.82919 18.6324 7.66803 17.8437 8.2388C17.055 8.80957 16.0852 9.0731 15.1161 8.97998C14.147 8.88687 13.2451 8.4435 12.5795 7.73299L8.37947 10.023C8.54068 10.6643 8.54068 11.3356 8.37947 11.977L12.5785 14.267C13.2441 13.5565 14.146 13.1131 15.1151 13.02C16.0842 12.9269 17.054 13.1904 17.8427 13.7612C18.6314 14.332 19.1849 15.1708 19.3994 16.1204C19.6139 17.0701 19.4746 18.0654 19.0078 18.9197C18.5409 19.7741 17.7785 20.4288 16.8635 20.7613C15.9484 21.0937 14.9435 21.081 14.0371 20.7255C13.1308 20.37 12.3852 19.6962 11.9401 18.8303C11.495 17.9644 11.381 16.9659 11.6195 16.022V16.023ZM4.49947 13C5.02991 13 5.53861 12.7893 5.91369 12.4142C6.28876 12.0391 6.49947 11.5304 6.49947 11C6.49947 10.4696 6.28876 9.96085 5.91369 9.58578C5.53861 9.2107 5.02991 8.99999 4.49947 8.99999C3.96904 8.99999 3.46033 9.2107 3.08526 9.58578C2.71019 9.96085 2.49947 10.4696 2.49947 11C2.49947 11.5304 2.71019 12.0391 3.08526 12.4142C3.46033 12.7893 3.96904 13 4.49947 13ZM15.4995 6.99999C16.0299 6.99999 16.5386 6.78928 16.9137 6.4142C17.2888 6.03913 17.4995 5.53042 17.4995 4.99999C17.4995 4.46956 17.2888 3.96085 16.9137 3.58578C16.5386 3.2107 16.0299 2.99999 15.4995 2.99999C14.969 2.99999 14.4603 3.2107 14.0853 3.58578C13.7102 3.96085 13.4995 4.46956 13.4995 4.99999C13.4995 5.53042 13.7102 6.03913 14.0853 6.4142C14.4603 6.78928 14.969 6.99999 15.4995 6.99999ZM15.4995 19C16.0299 19 16.5386 18.7893 16.9137 18.4142C17.2888 18.0391 17.4995 17.5304 17.4995 17C17.4995 16.4696 17.2888 15.9608 16.9137 15.5858C16.5386 15.2107 16.0299 15 15.4995 15C14.969 15 14.4603 15.2107 14.0853 15.5858C13.7102 15.9608 13.4995 16.4696 13.4995 17C13.4995 17.5304 13.7102 18.0391 14.0853 18.4142C14.4603 18.7893 14.969 19 15.4995 19Z" fill="#546076"/>
</svg>
