<svg width="57" height="57" viewBox="0 0 57 57" fill="none" xmlns="http://www.w3.org/2000/svg">
<rect x="0.848999" y="1.45728" width="55" height="55" rx="27.5" fill="#FCFCFC"/>
<path fill-rule="evenodd" clip-rule="evenodd" d="M13.6677 33.0624C13.6677 34.0101 14.2159 34.8608 15.1591 34.8608C16.9499 34.8608 18.1408 34.3404 19.6593 33.6355C21.3314 32.8594 22.6947 32.069 24.2805 31.1231C24.6742 30.8882 25.1988 30.6489 25.2853 30.3256C24.5709 30.3848 20.9884 32.0269 19.292 31.2132C17.3555 30.2842 21.1155 25.6504 21.6631 24.9193L22.9884 23.3463C23.174 23.1441 23.3262 23.0908 23.5405 22.8797C26.0973 20.3593 34.0184 14.0217 37.5584 15.9118C37.7808 16.0306 37.918 16.146 38.1154 16.2952C38.3423 16.4667 38.4284 16.6462 38.7086 16.7208C39.2521 15.698 39.5823 13.3586 37.4527 13.3586C34.8252 13.3586 31.6277 15.2462 29.3677 16.4085C28.4218 16.8951 26.8882 17.8476 25.9916 18.4408C24.6451 19.3314 21.8502 21.426 20.7128 22.5654C20.4706 22.8082 20.2863 23.0128 20.0262 23.2105C19.7698 23.4052 19.575 23.6151 19.3378 23.854C19.0887 24.1047 18.9788 24.2967 18.7117 24.5596C17.1254 26.1202 13.6678 30.6787 13.6678 33.0623L13.6677 33.0624Z" fill="#4385F5"/>
<path fill-rule="evenodd" clip-rule="evenodd" d="M28.1114 28.6838C28.3223 28.781 28.4116 28.6968 28.6486 28.5976L30.4358 27.8716C31.1544 27.6221 34.0146 26.7555 34.8085 27.6425C35.8217 28.7747 34.5974 31.126 33.9985 31.9674L32.6047 33.6284C32.2582 33.9691 32.1771 34.1771 31.6252 34.6857L29.4634 36.5982C29.2802 36.7573 29.0916 36.9118 28.9076 37.061C26.9009 38.6887 22.8284 41.5711 20.5425 42.9593C20.1488 43.1985 18.2275 44.3334 18.0637 44.556C18.8435 44.556 20.9197 43.3681 21.6222 43.0183C23.4595 42.1033 26.5938 40.4192 28.2837 39.3326C28.8334 38.979 29.3191 38.6978 29.8698 38.3323C30.415 37.9701 30.896 37.6447 31.4081 37.2843C32.4124 36.5775 33.3651 35.8002 34.3242 35.0284C34.462 34.9177 34.5119 34.8441 34.6503 34.7275C36.4244 33.2328 38.0133 31.5957 39.2262 29.59C39.8704 28.5249 41.7089 24.6434 39.4077 23.8431C37.5619 23.2013 34.1611 24.9772 32.8963 25.7089L30.4512 27.1046C30.0418 27.3618 28.2957 28.433 28.1114 28.6836V28.6838Z" fill="#546076"/>
<path fill-rule="evenodd" clip-rule="evenodd" d="M36.8248 20.3175C36.8248 21.2505 37.8005 21.9916 38.6602 22.2424C41.7619 23.1472 44.5627 20.4626 42.0713 18.8448C40.1971 17.6277 36.8246 18.4941 36.8246 20.3175H36.8248Z" fill="#546076"/>
<rect x="0.848999" y="1.45728" width="55" height="55" rx="27.5" stroke="#E5E8EF"/>
</svg>
