<svg width="37" height="37" viewBox="0 0 37 37" fill="none" xmlns="http://www.w3.org/2000/svg">
<path d="M18.349 0.935547C8.54981 0.935547 0.578659 8.90669 0.578659 18.7059C0.578659 28.505 8.54981 36.4762 18.349 36.4762C28.1482 36.4762 36.1193 28.505 36.1193 18.7059C36.1193 8.90669 28.1482 0.935547 18.349 0.935547Z" fill="#546076" stroke="white"/>
<path d="M27.0433 15.8015C27.0433 15.6153 27.0387 15.4299 27.0309 15.2476C27.8661 14.6442 28.5916 13.8893 29.1649 13.0309C28.3962 13.3716 27.5725 13.6003 26.7057 13.7054C27.5903 13.1754 28.2695 12.3363 28.5885 11.3381C27.7618 11.8279 26.8447 12.1841 25.8705 12.3757C25.0901 11.5436 23.9783 11.0244 22.7475 11.0244C20.3833 11.0244 18.4672 12.9405 18.4672 15.304C18.4672 15.6393 18.5058 15.9653 18.5792 16.279C15.0228 16.0998 11.869 14.3961 9.75742 11.8071C9.38888 12.4406 9.17872 13.1754 9.17872 13.9596C9.17872 15.4446 9.9328 16.7534 11.0825 17.5222C10.3802 17.4998 9.7211 17.3066 9.14395 16.986V17.0401C9.14395 19.1145 10.6189 20.8421 12.5752 21.2369C12.2174 21.3358 11.8389 21.3876 11.4487 21.3876C11.1721 21.3876 10.904 21.3606 10.6421 21.3103C11.1883 23.0086 12.7676 24.2486 14.6404 24.2826C13.177 25.4307 11.3312 26.1137 9.32552 26.1137C8.97861 26.1137 8.63943 26.0944 8.30489 26.0542C10.1978 27.2688 12.4485 27.9773 14.8652 27.9773C22.7375 27.9773 27.0433 21.4556 27.0433 15.8015Z" fill="white"/>
</svg>
