<svg width="78" height="18" viewBox="0 0 78 18" fill="none" xmlns="http://www.w3.org/2000/svg">
<path d="M8.36992 6.48987C9.35009 5.8172 9.83056 4.87547 9.83056 3.68389C9.83056 2.64607 9.4654 1.78121 8.73508 1.07011C8.00475 0.359004 7.12068 0.0130615 6.06363 0.0130615H0.682312V13.4664H6.48645C7.58194 13.4664 8.50445 13.1012 9.25399 12.3709C10.0035 11.6406 10.3879 10.7373 10.3879 9.661C10.3879 8.21958 9.59993 7.08566 8.36992 6.48987ZM6.06363 1.68512C6.62099 1.68512 7.08224 1.89652 7.46662 2.30012C7.87022 2.70372 8.06241 3.1842 8.06241 3.74155C8.06241 4.89469 7.19756 5.79798 6.06363 5.79798H2.46968V1.68512H6.06363ZM2.46968 11.7943V7.4316H6.48645C7.08224 7.4316 7.58194 7.64301 7.98554 8.06582C8.40835 8.48864 8.61976 9.00756 8.61976 9.60335C8.61976 10.8334 7.69725 11.7943 6.48645 11.7943H2.46968Z" fill="#546076"/>
<path d="M16.5685 11.3907L13.3012 3.85686H11.5139L15.7036 13.4279L15.5306 13.7931C14.9733 15.1961 14.1084 15.8495 12.9361 15.7534V17.3102C14.858 17.4447 16.3763 16.2339 17.2027 14.0622L21.1234 3.85686H19.336L16.5685 11.3907Z" fill="#546076"/>
<path d="M28.3238 3.85686H25.7676V1.1662L24.0956 1.6659V3.85686H22.1929V5.47126H24.0956V10.6796C24.0956 13.0628 25.4025 13.8507 28.3238 13.4664V11.9673C26.6133 12.0442 25.7676 12.1595 25.7676 10.6796V5.47126H28.3238V3.85686Z" fill="#546076"/>
<path d="M39.617 9.43037C39.6555 9.18053 39.6747 8.93068 39.6747 8.68083C39.6747 7.27785 39.2326 6.08627 38.3293 5.1061C37.4453 4.10671 36.2921 3.60702 34.8891 3.60702C33.4093 3.60702 32.1985 4.08749 31.2568 5.04844C30.315 6.00939 29.8538 7.22019 29.8538 8.66161C29.8538 10.1223 30.3342 11.3331 31.276 12.294C32.2369 13.2357 33.4862 13.7162 35.0045 13.7162C36.8879 13.7162 38.2909 12.9859 39.2326 11.5445L37.8104 10.7373C37.2339 11.679 36.3114 12.1403 35.0429 12.1403C33.2171 12.1403 31.891 11.1409 31.5643 9.43037H39.617ZM34.8891 5.18297C36.4267 5.18297 37.6951 6.14392 37.9834 7.96973H31.5643C31.8525 6.27846 33.1018 5.18297 34.8891 5.18297Z" fill="#546076"/>
<path d="M47.4777 3.60702C45.8826 3.60702 44.6718 4.24124 43.8453 5.5097V3.85686H42.1733V17.3102H43.8453V11.8135C44.6718 13.082 45.8826 13.7162 47.4777 13.7162C48.8231 13.7162 49.9762 13.2357 50.9179 12.2556C51.8597 11.2754 52.3402 10.0646 52.3402 8.66161C52.3402 7.25863 51.8597 6.06705 50.9179 5.08688C49.9762 4.10671 48.8231 3.60702 47.4777 3.60702ZM47.2663 12.1018C46.2862 12.1018 45.479 11.7751 44.8255 11.1216C44.1721 10.449 43.8453 9.64178 43.8453 8.66161C43.8453 7.68144 44.1721 6.87425 44.8255 6.2208C45.479 5.54814 46.2862 5.22141 47.2663 5.22141C48.2273 5.22141 49.0345 5.54814 49.6879 6.2208C50.3414 6.87425 50.6681 7.68144 50.6681 8.66161C50.6681 9.64178 50.3414 10.449 49.6879 11.1216C49.0345 11.7751 48.2273 12.1018 47.2663 12.1018Z" fill="#546076"/>
<path d="M62.8686 5.5097C62.0422 4.24124 60.8314 3.60702 59.2362 3.60702C57.8908 3.60702 56.7377 4.10671 55.796 5.08688C54.8542 6.06705 54.3738 7.25863 54.3738 8.66161C54.3738 10.0646 54.8542 11.2754 55.796 12.2556C56.7377 13.2357 57.8908 13.7162 59.2362 13.7162C60.8314 13.7162 62.0422 13.082 62.8686 11.8135V13.4664H64.5406V3.85686H62.8686V5.5097ZM59.4476 12.1018C58.4866 12.1018 57.6794 11.7751 57.026 11.1216C56.3725 10.449 56.0458 9.64178 56.0458 8.66161C56.0458 7.68144 56.3725 6.87425 57.026 6.2208C57.6794 5.54814 58.4866 5.22141 59.4476 5.22141C60.4278 5.22141 61.235 5.54814 61.8884 6.2208C62.5418 6.87425 62.8686 7.68144 62.8686 8.66161C62.8686 9.64178 62.5418 10.449 61.8884 11.1216C61.235 11.7751 60.4278 12.1018 59.4476 12.1018Z" fill="#546076"/>
<path d="M75.6072 5.5097C74.7807 4.24124 73.57 3.60702 71.9748 3.60702C70.6294 3.60702 69.4763 4.10671 68.5346 5.08688C67.5928 6.06705 67.1124 7.25863 67.1124 8.66161C67.1124 10.0646 67.5928 11.2754 68.5346 12.2556C69.4763 13.2357 70.6294 13.7162 71.9748 13.7162C73.57 13.7162 74.7807 13.082 75.6072 11.8135V13.4664H77.2792V0.0130615H75.6072V5.5097ZM72.1862 12.1018C71.2252 12.1018 70.418 11.7751 69.7646 11.1216C69.1111 10.449 68.7844 9.64178 68.7844 8.66161C68.7844 7.68144 69.1111 6.87425 69.7646 6.2208C70.418 5.54814 71.2252 5.22141 72.1862 5.22141C73.1664 5.22141 73.9735 5.54814 74.627 6.2208C75.2804 6.87425 75.6072 7.68144 75.6072 8.66161C75.6072 9.64178 75.2804 10.449 74.627 11.1216C73.9735 11.7751 73.1664 12.1018 72.1862 12.1018Z" fill="#546076"/>
</svg>
