<svg width="25" height="25" viewBox="0 0 25 25" fill="none" xmlns="http://www.w3.org/2000/svg">
<path d="M16.5704 17.2407V16.2407H13.5704V13.2407H16.5704V15.2407H18.5704V17.2407H17.5704V19.2407H15.5704V21.2407H13.5704V18.2407H15.5704V17.2407H16.5704ZM21.5704 21.2407H17.5704V19.2407H19.5704V17.2407H21.5704V21.2407ZM3.57037 3.24072H11.5704V11.2407H3.57037V3.24072ZM5.57037 5.24072V9.24072H9.57037V5.24072H5.57037ZM13.5704 3.24072H21.5704V11.2407H13.5704V3.24072ZM15.5704 5.24072V9.24072H19.5704V5.24072H15.5704ZM3.57037 13.2407H11.5704V21.2407H3.57037V13.2407ZM5.57037 15.2407V19.2407H9.57037V15.2407H5.57037ZM18.5704 13.2407H21.5704V15.2407H18.5704V13.2407ZM6.57037 6.24072H8.57037V8.24072H6.57037V6.24072ZM6.57037 16.2407H8.57037V18.2407H6.57037V16.2407ZM16.5704 6.24072H18.5704V8.24072H16.5704V6.24072Z" fill="white"/>
</svg>
