<svg width="39" height="39" viewBox="0 0 39 39" fill="none" xmlns="http://www.w3.org/2000/svg">
<path d="M1.349 19.4785C1.349 9.2375 9.65096 0.935547 19.8919 0.935547C30.1329 0.935547 38.4349 9.2375 38.4349 19.4785C38.4349 29.7195 30.1329 38.0214 19.8919 38.0214C9.65096 38.0214 1.349 29.7195 1.349 19.4785Z" fill="#546076" stroke="white"/>
<path fill-rule="evenodd" clip-rule="evenodd" d="M15.815 9.64862C16.8699 9.60061 17.2069 9.58887 19.8928 9.58887H19.8897C22.5764 9.58887 22.9122 9.60061 23.9671 9.64862C25.02 9.69683 25.739 9.86351 26.3695 10.1081C27.0206 10.3605 27.5707 10.6984 28.1208 11.2485C28.6709 11.7982 29.0088 12.3499 29.2622 13.0004C29.5054 13.6292 29.6722 14.3479 29.7217 15.4007C29.7691 16.4556 29.7814 16.7927 29.7814 19.4785C29.7814 22.1644 29.7691 22.5007 29.7217 23.5556C29.6722 24.608 29.5054 25.3268 29.2622 25.9559C29.0088 26.6061 28.6709 27.1579 28.1208 27.7076C27.5713 28.2577 27.0204 28.5964 26.3701 28.849C25.7409 29.0936 25.0214 29.2602 23.9686 29.3085C22.9137 29.3565 22.5776 29.3682 19.8916 29.3682C17.2059 29.3682 16.869 29.3565 15.8141 29.3085C14.7615 29.2602 14.0426 29.0936 13.4134 28.849C12.7634 28.5964 12.2116 28.2577 11.6621 27.7076C11.1122 27.1579 10.7743 26.6061 10.5215 25.9557C10.2772 25.3268 10.1105 24.6082 10.0621 23.5554C10.0143 22.5005 10.0023 22.1644 10.0023 19.4785C10.0023 16.7927 10.0147 16.4554 10.0618 15.4005C10.1092 14.3481 10.2761 13.6292 10.5213 13.0002C10.7747 12.3499 11.1126 11.7982 11.6627 11.2485C12.2124 10.6986 12.7642 10.3607 13.4147 10.1081C14.0435 9.86351 14.7621 9.69683 15.815 9.64862ZM19.5632 11.3709C19.3632 11.3708 19.1779 11.3707 19.0056 11.371V11.3685C17.1624 11.3705 16.8089 11.3829 15.8966 11.4241C14.9323 11.4684 14.4088 11.6291 14.0602 11.7651C13.5987 11.9448 13.269 12.159 12.9229 12.5052C12.5767 12.8513 12.362 13.181 12.1828 13.6425C12.0474 13.9911 11.8863 14.5144 11.8422 15.4787C11.7948 16.5212 11.7853 16.8327 11.7853 19.4737C11.7853 22.1146 11.7948 22.4278 11.8422 23.4704C11.8861 24.4346 12.0474 24.9579 12.1828 25.3061C12.3624 25.7678 12.5767 26.0967 12.9229 26.4428C13.269 26.789 13.5987 27.0032 14.0602 27.1825C14.409 27.3179 14.9323 27.479 15.8966 27.5235C16.9391 27.5709 17.2521 27.5812 19.8928 27.5812C22.5334 27.5812 22.8465 27.5709 23.8891 27.5235C24.8533 27.4794 25.377 27.3187 25.7252 27.1827C26.187 27.0034 26.5156 26.7892 26.8617 26.443C27.2079 26.0971 27.4226 25.7685 27.6018 25.3069C27.7372 24.9588 27.8983 24.4354 27.9424 23.4712C27.9898 22.4286 28.0001 22.1155 28.0001 19.4762C28.0001 16.8369 27.9898 16.5237 27.9424 15.4811C27.8985 14.5169 27.7372 13.9936 27.6018 13.6454C27.4221 13.1839 27.2079 12.8542 26.8617 12.5081C26.5158 12.1619 26.1868 11.9477 25.7252 11.7684C25.3766 11.633 24.8533 11.4719 23.8891 11.4278C22.8463 11.3804 22.5334 11.371 19.8928 11.371C19.7787 11.371 19.6689 11.3709 19.5632 11.3709Z" fill="white"/>
<path d="M25.1718 13.0129C24.5166 13.0129 23.9851 13.5439 23.9851 14.1993C23.9851 14.8545 24.5166 15.386 25.1718 15.386C25.827 15.386 26.3586 14.8545 26.3586 14.1993C26.3586 13.5441 25.827 13.0129 25.1718 13.0129Z" fill="white"/>
<path fill-rule="evenodd" clip-rule="evenodd" d="M14.814 19.4787C14.814 16.6739 17.088 14.3999 19.8928 14.3999C22.6975 14.3999 24.9707 16.6739 24.9707 19.4787C24.9707 22.2834 22.6975 24.5564 19.8928 24.5564C17.088 24.5564 14.814 22.2834 14.814 19.4787ZM23.1892 19.4785C23.1892 17.6578 21.7131 16.182 19.8926 16.182C18.0719 16.182 16.5961 17.6578 16.5961 19.4785C16.5961 21.299 18.0719 22.7751 19.8926 22.7751C21.7131 22.7751 23.1892 21.299 23.1892 19.4785Z" fill="white"/>
</svg>
