<svg width="411" height="974" viewBox="0 0 411 974" fill="none" xmlns="http://www.w3.org/2000/svg">
<path d="M7.35998 535.925C8.18786 533.361 11.4808 532.655 13.2874 534.653L58.3895 584.56C60.196 586.559 59.1611 589.764 56.5267 590.329L-9.24463 604.435C-11.879 605 -14.1372 602.502 -13.3093 599.938L7.35998 535.925Z" stroke="#58D1BD"/>
<path d="M-5.27239 80.7364C-4.60769 79.3736 -3.14104 78.5937 -1.6395 78.8048L19.3588 81.7559C20.8603 81.9669 22.0552 83.1208 22.3185 84.614L26.0007 105.497C26.264 106.99 25.5358 108.483 24.197 109.195L5.47439 119.15C4.13558 119.862 2.49066 119.63 1.39994 118.577L-13.8534 103.847C-14.9442 102.794 -15.2326 101.158 -14.5679 99.795L-5.27239 80.7364Z" fill="white" stroke="#FFA1A1"/>
<rect x="364.776" y="121.701" width="52.4386" height="16.5058" rx="8.25288" transform="rotate(-39.2972 364.776 121.701)" fill="white" stroke="#58D1BD"/>
<path d="M428.88 496.612L391.232 452.962C389.068 450.453 389.341 446.612 392.087 444.757C419.806 426.036 450.916 447.439 466.619 464.295C468.834 466.673 468.492 470.37 466.031 472.492L437.342 497.236C434.833 499.401 431.044 499.121 428.88 496.612Z" fill="white" stroke="#B19EFF"/>
<path d="M382.759 607.396C384.849 605.193 387.955 604.271 390.908 604.979L426.026 613.394C428.979 614.102 431.331 616.331 432.194 619.242L442.465 653.863C443.329 656.775 442.574 659.926 440.485 662.129L415.638 688.335C413.548 690.538 410.442 691.46 407.489 690.752L372.371 682.337C369.418 681.629 367.066 679.4 366.203 676.488L355.931 641.868C355.068 638.956 355.823 635.805 357.912 633.602L382.759 607.396Z" stroke="#58D1BD"/>
<rect x="-56.4101" y="868.518" width="98.7649" height="98.7649" rx="31.5" transform="rotate(-24.4052 -56.4101 868.518)" stroke="#70AAFC"/>
</svg>
