<svg width="19" height="19" viewBox="0 0 19 19" fill="none" xmlns="http://www.w3.org/2000/svg">
<path d="M12.4082 16.6446C12.137 16.6446 11.8962 16.4692 11.8132 16.2109L10.5937 12.4175L6.80033 11.1979C6.54199 11.115 6.36658 10.8742 6.36658 10.6029C6.36658 10.3317 6.54199 10.0909 6.80033 10.0079L10.5937 8.78836L11.8132 4.99503C11.8962 4.7367 12.137 4.56128 12.4082 4.56128C12.6795 4.56128 12.9203 4.7367 13.0032 4.99503L14.2228 8.78836L18.0162 10.0079C18.2745 10.0909 18.4499 10.3317 18.4499 10.6029C18.4499 10.8742 18.2745 11.115 18.0162 11.1979L14.2228 12.4175L13.0032 16.2109C12.9203 16.4692 12.6795 16.6446 12.4082 16.6446ZM4.28324 9.14461C4.01408 9.14461 3.77533 8.97253 3.69033 8.71753L2.90366 6.35753L0.543661 5.57086C0.288661 5.48586 0.116577 5.24711 0.116577 4.97795C0.116577 4.70878 0.288661 4.47003 0.543661 4.38503L2.90366 3.59836L3.69033 1.23836C3.77533 0.983363 4.01408 0.811279 4.28324 0.811279C4.55241 0.811279 4.79116 0.983363 4.87616 1.23836L5.66283 3.59836L8.02283 4.38503C8.27783 4.47003 8.44991 4.70878 8.44991 4.97795C8.44991 5.24711 8.27783 5.48586 8.02283 5.57086L5.66283 6.35753L4.87616 8.71753C4.79116 8.97253 4.55241 9.14461 4.28324 9.14461ZM3.65824 18.3113C3.38908 18.3113 3.15033 18.1392 3.06533 17.8842L2.43449 15.9929L0.543661 15.3625C0.288661 15.2775 0.116577 15.0388 0.116577 14.7696C0.116577 14.5004 0.288661 14.2617 0.543661 14.1767L2.43449 13.5463L3.06533 11.655C3.15033 11.4 3.38908 11.2279 3.65824 11.2279C3.92741 11.2279 4.16616 11.4 4.25116 11.655L4.88158 13.5463L6.77283 14.1767C7.02783 14.2617 7.19991 14.5004 7.19991 14.7696C7.19991 15.0388 7.02783 15.2775 6.77283 15.3625L4.88158 15.9929L4.25116 17.8842C4.16616 18.1392 3.92741 18.3113 3.65824 18.3113Z" fill="white"/>
</svg>
